# xmcd CD database file
#
# Track frame offsets:
#	150
#	7052
#	27803
#	43722
#	56675
#	72926
#	103653
#	138571
#	179566
#	194491
#	235928
#	250311
#	287657
#	308615
#
# Disc length: 4330 seconds
#
# Revision: 0
# Processed by: cddbd v1.5.2PL0 Copyright (c) Steve Scherf et al.
# Submitted via: CDex 1.51
#
DISCID=cc10e80e
DTITLE=Dave Brubeck - Brubeck in Wonderland
DYEAR=1900
DGENRE=Jazz
TTITLE0=Playland - At the Beach
TTITLE1=Serenede Suite
TTITLE2=Lullaby in Rhythm
TTITLE3=Mam'Selle
TTITLE4=Alice in Wonderland
TTITLE5=Crazy Chris
TTITLE6=The Way You Look Tonight
TTITLE7=How High the Moon
TTITLE8=Trolley Song
TTITLE9=All the Things You Are
TTITLE10=Laura
TTITLE11=Stardust
TTITLE12=Le Souk
TTITLE13=Audrey
EXTD=
EXTT0=
EXTT1=
EXTT2=
EXTT3=
EXTT4=
EXTT5=
EXTT6=
EXTT7=
EXTT8=
EXTT9=
EXTT10=
EXTT11=
EXTT12=
EXTT13=
PLAYORDER=
